<?xml version="1.0" standalone="no"?>
<!DOCTYPE svg PUBLIC "-//W3C//DTD SVG 20010904//EN"
 "http://www.w3.org/TR/2001/REC-SVG-20010904/DTD/svg10.dtd">
<svg version="1.0" xmlns="http://www.w3.org/2000/svg"
 width="731.000000pt" height="567.000000pt" viewBox="0 0 731.000000 567.000000"
 preserveAspectRatio="xMidYMid meet">

<g transform="translate(0.000000,567.000000) scale(0.100000,-0.100000)"
fill="#FFFFFF" stroke="none">
<path d="M4352 5339 c-129 -22 -216 -90 -249 -196 -27 -86 -24 -352 6 -528 93
-557 359 -1222 636 -1591 160 -213 314 -328 457 -341 83 -8 145 25 245 131
225 237 459 723 588 1221 63 245 100 527 93 708 -6 145 -31 203 -123 292 -175
169 -537 271 -1080 305 -191 12 -499 11 -573 -1z"/>
<path d="M3130 5245 c-781 -127 -1465 -383 -1757 -658 -77 -73 -118 -144 -149
-262 -26 -96 -26 -399 -1 -565 92 -597 335 -1317 676 -1999 399 -797 828
-1324 1196 -1472 102 -40 217 -50 315 -25 321 81 774 480 1219 1074 99 131
332 474 327 480 -2 2 -34 -2 -71 -9 -38 -6 -102 -9 -144 -6 -276 21 -610 396
-962 1082 -402 782 -667 1664 -621 2068 14 131 41 202 98 267 25 27 40 50 32
49 -7 0 -78 -11 -158 -24z"/>
</g>
</svg>
