<svg width="110" height="41" viewBox="0 0 110 41" fill="none" xmlns="http://www.w3.org/2000/svg">
<path d="M17.824 13.504H11.296V32H6.912V13.504H0.352V9.6H17.824V13.504ZM20.1075 9.824C20.5982 9.73867 21.1208 9.664 21.6755 9.6C22.2515 9.51466 22.8168 9.45067 23.3715 9.408C23.9475 9.36533 24.5022 9.33333 25.0355 9.312C25.5688 9.29067 26.0595 9.28 26.5075 9.28C27.5528 9.28 28.5768 9.376 29.5795 9.568C30.6035 9.76 31.5102 10.0907 32.2995 10.56C33.1102 11.0293 33.7502 11.68 34.2195 12.512C34.7102 13.3227 34.9555 14.3467 34.9555 15.584C34.9555 17.4187 34.5288 18.912 33.6755 20.064C32.8222 21.216 31.6808 22.016 30.2515 22.464L31.8195 23.456L36.9395 32H31.8835L26.7955 23.232L24.4915 22.816V32H20.1075V9.824ZM26.8275 13.184C26.3795 13.184 25.9315 13.1947 25.4835 13.216C25.0568 13.2373 24.7262 13.28 24.4915 13.344V19.84H26.3475C27.5635 19.84 28.5342 19.5627 29.2595 19.008C29.9848 18.4533 30.3475 17.536 30.3475 16.256C30.3475 15.296 30.0488 14.5493 29.4515 14.016C28.8542 13.4613 27.9795 13.184 26.8275 13.184ZM45.1863 22.752L45.7623 26.56H45.9223L46.5623 22.72L50.8503 9.6H55.4583L47.1383 32.16H44.0023L35.6182 9.6H40.7063L45.1863 22.752ZM71.2523 32H57.0763V9.6H61.4603V28.096H71.2523V32Z" fill="white"/>
<path d="M94.2589 7.69295C93.5991 7.80547 93.1542 8.15326 92.9854 8.69542C92.8473 9.13528 92.8626 10.4958 93.0161 11.3959C93.4917 14.2448 94.8522 17.646 96.269 19.5333C97.0873 20.6228 97.875 21.2109 98.6064 21.2774C99.0309 21.3183 99.348 21.1496 99.8594 20.6074C101.01 19.3952 102.207 16.9095 102.867 14.3624C103.189 13.1094 103.378 11.667 103.342 10.7413C103.312 9.99965 103.184 9.703 102.713 9.2478C101.818 8.38342 99.9668 7.86173 97.1896 7.68783C96.2127 7.62646 94.6374 7.63157 94.2589 7.69295Z" fill="white"/>
<path d="M88.0088 8.17372C84.0143 8.82328 80.5159 10.1326 79.0224 11.5392C78.6286 11.9125 78.4189 12.2757 78.2603 12.8792C78.1273 13.3702 78.1273 14.9199 78.2552 15.769C78.7257 18.8224 79.9686 22.5049 81.7127 25.9931C83.7534 30.0695 85.9476 32.7649 87.8298 33.5219C88.3515 33.7265 88.9397 33.7776 89.4409 33.6497C91.0827 33.2354 93.3997 31.1947 95.6757 28.1566C96.182 27.4866 97.3737 25.7323 97.3482 25.7016C97.3379 25.6914 97.1743 25.7118 96.985 25.7476C96.7907 25.7783 96.4633 25.7936 96.2485 25.7783C94.8369 25.6709 93.1286 23.7529 91.3282 20.2443C89.2721 16.2446 87.9168 11.7335 88.152 9.66719C88.2236 8.99718 88.3617 8.63404 88.6533 8.30159C88.7811 8.16349 88.8579 8.04585 88.8169 8.05097C88.7811 8.05097 88.418 8.10723 88.0088 8.17372Z" fill="white"/>
</svg>
